<?xml version="1.0" encoding="utf-8"?>
<!-- Generator: Adobe Illustrator 25.2.3, SVG Export Plug-In . SVG Version: 6.00 Build 0)  -->
<svg version="1.1" id="Layer_1" xmlns="http://www.w3.org/2000/svg" xmlns:xlink="http://www.w3.org/1999/xlink" x="0px" y="0px"
	 viewBox="0 0 200 100" style="enable-background:new 0 0 200 100;" xml:space="preserve">
<style type="text/css">
	.st0{fill:none;}
	.st1{fill:#6F4C4D;}
	.st2{fill:#634547;}
	.st3{fill:#3E2A2B;}
	.st4{fill:#4D3736;}
	.st5{fill:#118C43;}
	.st6{fill:#30D343;}
	.st7{fill:#7BE48C;}
	.st8{fill:#DC14BB;}
	.st9{fill:#EDA8ED;}
	.st10{fill:#E369E3;}
	.st11{fill:#FFFFFF;}
</style>
<g>
	<rect x="0" y="0" class="st0" width="200" height="100"/>
</g>
<g>
	<rect x="55.32" y="90.2" class="st1" width="1.96" height="1.96"/>
</g>
<g>
	<rect x="53.36" y="90.2" class="st2" width="1.96" height="1.96"/>
</g>
<g>
	<rect x="51.4" y="90.2" class="st3" width="1.96" height="1.96"/>
</g>
<g>
	<rect x="51.4" y="88.24" class="st2" width="1.96" height="1.96"/>
</g>
<g>
	<rect x="39.63" y="80.39" class="st2" width="1.96" height="1.96"/>
</g>
<g>
	<rect x="39.63" y="86.27" class="st2" width="1.96" height="1.96"/>
</g>
<g>
	<rect x="39.63" y="84.31" class="st4" width="1.96" height="1.96"/>
</g>
<g>
	<rect x="39.63" y="82.35" class="st4" width="1.96" height="1.96"/>
</g>
<g>
	<rect x="39.63" y="90.2" class="st2" width="1.96" height="1.96"/>
</g>
<g>
	<rect x="39.63" y="88.24" class="st3" width="1.96" height="1.96"/>
</g>
<g>
	<rect x="37.67" y="80.39" class="st2" width="1.96" height="1.96"/>
</g>
<g>
	<rect x="37.67" y="86.27" class="st4" width="1.96" height="1.96"/>
</g>
<g>
	<rect x="37.67" y="84.31" class="st4" width="1.96" height="1.96"/>
</g>
<g>
	<rect x="37.67" y="82.35" class="st4" width="1.96" height="1.96"/>
</g>
<g>
	<rect x="37.67" y="90.2" class="st3" width="1.96" height="1.96"/>
</g>
<g>
	<rect x="37.67" y="88.24" class="st4" width="1.96" height="1.96"/>
</g>
<g>
	<rect x="35.71" y="80.39" class="st2" width="1.96" height="1.96"/>
</g>
<g>
	<rect x="35.71" y="86.27" class="st2" width="1.96" height="1.96"/>
</g>
<g>
	<rect x="35.71" y="84.31" class="st4" width="1.96" height="1.96"/>
</g>
<g>
	<rect x="35.71" y="82.35" class="st4" width="1.96" height="1.96"/>
</g>
<g>
	<rect x="35.71" y="90.2" class="st3" width="1.96" height="1.96"/>
</g>
<g>
	<rect x="35.71" y="88.24" class="st2" width="1.96" height="1.96"/>
</g>
<g>
	<rect x="33.75" y="80.39" class="st2" width="1.96" height="1.96"/>
</g>
<g>
	<rect x="33.75" y="86.27" class="st4" width="1.96" height="1.96"/>
</g>
<g>
	<rect x="33.75" y="84.31" class="st2" width="1.96" height="1.96"/>
</g>
<g>
	<rect x="33.75" y="82.35" class="st1" width="1.96" height="1.96"/>
</g>
<g>
	<rect x="33.75" y="90.2" class="st2" width="1.96" height="1.96"/>
</g>
<g>
	<rect x="33.75" y="88.24" class="st2" width="1.96" height="1.96"/>
</g>
<g>
	<rect x="31.79" y="80.39" class="st1" width="1.96" height="1.96"/>
</g>
<g>
	<rect x="31.79" y="86.27" class="st2" width="1.96" height="1.96"/>
</g>
<g>
	<rect x="31.79" y="84.31" class="st2" width="1.96" height="1.96"/>
</g>
<g>
	<rect x="31.79" y="82.35" class="st2" width="1.96" height="1.96"/>
</g>
<g>
	<rect x="31.79" y="90.2" class="st3" width="1.96" height="1.96"/>
</g>
<g>
	<rect x="31.79" y="88.24" class="st4" width="1.96" height="1.96"/>
</g>
<g>
	<rect x="29.83" y="80.39" class="st1" width="1.96" height="1.96"/>
</g>
<g>
	<rect x="29.83" y="86.27" class="st2" width="1.96" height="1.96"/>
</g>
<g>
	<rect x="29.83" y="84.31" class="st4" width="1.96" height="1.96"/>
</g>
<g>
	<rect x="29.83" y="82.35" class="st2" width="1.96" height="1.96"/>
</g>
<g>
	<rect x="29.83" y="90.2" class="st2" width="1.96" height="1.96"/>
</g>
<g>
	<rect x="29.83" y="88.24" class="st2" width="1.96" height="1.96"/>
</g>
<g>
	<rect x="27.87" y="86.27" class="st2" width="1.96" height="1.96"/>
</g>
<g>
	<rect x="27.87" y="84.31" class="st4" width="1.96" height="1.96"/>
</g>
<g>
	<rect x="27.87" y="82.35" class="st2" width="1.96" height="1.96"/>
</g>
<g>
	<rect x="27.87" y="90.2" class="st4" width="1.96" height="1.96"/>
</g>
<g>
	<rect x="27.87" y="88.24" class="st4" width="1.96" height="1.96"/>
</g>
<g>
	<rect x="25.91" y="86.27" class="st2" width="1.96" height="1.96"/>
</g>
<g>
	<rect x="25.91" y="84.31" class="st4" width="1.96" height="1.96"/>
</g>
<g>
	<rect x="25.91" y="90.2" class="st2" width="1.96" height="1.96"/>
</g>
<g>
	<rect x="25.91" y="88.24" class="st3" width="1.96" height="1.96"/>
</g>
<g>
	<rect x="23.95" y="86.27" class="st4" width="1.96" height="1.96"/>
</g>
<g>
	<rect x="23.95" y="84.31" class="st1" width="1.96" height="1.96"/>
</g>
<g>
	<rect x="23.95" y="90.2" class="st3" width="1.96" height="1.96"/>
</g>
<g>
	<rect x="23.95" y="88.24" class="st4" width="1.96" height="1.96"/>
</g>
<g>
	<rect x="21.99" y="86.27" class="st1" width="1.96" height="1.96"/>
</g>
<g>
	<rect x="21.99" y="90.2" class="st2" width="1.96" height="1.96"/>
</g>
<g>
	<rect x="21.99" y="88.24" class="st2" width="1.96" height="1.96"/>
</g>
<g>
	<rect x="49.44" y="86.27" class="st1" width="1.96" height="1.96"/>
</g>
<g>
	<rect x="49.44" y="90.2" class="st2" width="1.96" height="1.96"/>
</g>
<g>
	<rect x="49.44" y="88.24" class="st2" width="1.96" height="1.96"/>
</g>
<g>
	<rect x="47.48" y="86.27" class="st2" width="1.96" height="1.96"/>
</g>
<g>
	<rect x="47.48" y="84.31" class="st1" width="1.96" height="1.96"/>
</g>
<g>
	<rect x="47.48" y="90.2" class="st4" width="1.96" height="1.96"/>
</g>
<g>
	<rect x="47.48" y="88.24" class="st2" width="1.96" height="1.96"/>
</g>
<g>
	<rect x="45.52" y="86.27" class="st4" width="1.96" height="1.96"/>
</g>
<g>
	<rect x="45.52" y="84.31" class="st2" width="1.96" height="1.96"/>
</g>
<g>
	<rect x="45.52" y="90.2" class="st4" width="1.96" height="1.96"/>
</g>
<g>
	<rect x="45.52" y="88.24" class="st4" width="1.96" height="1.96"/>
</g>
<g>
	<rect x="43.56" y="86.27" class="st4" width="1.96" height="1.96"/>
</g>
<g>
	<rect x="43.56" y="84.31" class="st2" width="1.96" height="1.96"/>
</g>
<g>
	<rect x="43.56" y="82.35" class="st1" width="1.96" height="1.96"/>
</g>
<g>
	<rect x="43.56" y="90.2" class="st3" width="1.96" height="1.96"/>
</g>
<g>
	<rect x="43.56" y="88.24" class="st4" width="1.96" height="1.96"/>
</g>
<g>
	<rect x="41.59" y="80.39" class="st1" width="1.96" height="1.96"/>
</g>
<g>
	<rect x="41.59" y="86.27" class="st3" width="1.96" height="1.96"/>
</g>
<g>
	<rect x="41.59" y="84.31" class="st2" width="1.96" height="1.96"/>
</g>
<g>
	<rect x="41.59" y="82.35" class="st2" width="1.96" height="1.96"/>
</g>
<g>
	<rect x="41.59" y="90.2" class="st3" width="1.96" height="1.96"/>
</g>
<g>
	<rect x="41.59" y="88.24" class="st3" width="1.96" height="1.96"/>
</g>
<g>
	<rect x="20.03" y="90.2" class="st3" width="1.96" height="1.96"/>
</g>
<g>
	<rect x="20.03" y="88.24" class="st1" width="1.96" height="1.96"/>
</g>
<g>
	<rect x="18.07" y="90.2" class="st4" width="1.96" height="1.96"/>
</g>
<g>
	<rect x="16.1" y="90.2" class="st2" width="1.96" height="1.96"/>
</g>
<g>
	<rect x="39.63" y="66.67" class="st5" width="1.96" height="1.96"/>
</g>
<g>
	<rect x="39.63" y="68.63" class="st5" width="1.96" height="1.96"/>
</g>
<g>
	<rect x="37.67" y="66.67" class="st5" width="1.96" height="1.96"/>
</g>
<g>
	<rect x="37.67" y="70.59" class="st5" width="1.96" height="1.96"/>
</g>
<g>
	<rect x="37.67" y="68.63" class="st5" width="1.96" height="1.96"/>
</g>
<g>
	<rect x="37.67" y="78.43" class="st1" width="1.96" height="1.96"/>
</g>
<g>
	<rect x="35.71" y="66.67" class="st6" width="1.96" height="1.96"/>
</g>
<g>
	<rect x="35.71" y="72.55" class="st5" width="1.96" height="1.96"/>
</g>
<g>
	<rect x="35.71" y="70.59" class="st6" width="1.96" height="1.96"/>
</g>
<g>
	<rect x="35.71" y="68.63" class="st6" width="1.96" height="1.96"/>
</g>
<g>
	<rect x="35.71" y="78.43" class="st5" width="1.96" height="1.96"/>
</g>
<g>
	<rect x="35.71" y="76.47" class="st5" width="1.96" height="1.96"/>
</g>
<g>
	<rect x="35.71" y="74.51" class="st5" width="1.96" height="1.96"/>
</g>
<g>
	<rect x="33.75" y="66.67" class="st5" width="1.96" height="1.96"/>
</g>
<g>
	<rect x="33.75" y="72.55" class="st5" width="1.96" height="1.96"/>
</g>
<g>
	<rect x="33.75" y="70.59" class="st5" width="1.96" height="1.96"/>
</g>
<g>
	<rect x="33.75" y="68.63" class="st5" width="1.96" height="1.96"/>
</g>
<g>
	<rect x="33.75" y="78.43" class="st1" width="1.96" height="1.96"/>
</g>
<g>
	<rect x="31.79" y="66.67" class="st5" width="1.96" height="1.96"/>
</g>
<g>
	<rect x="31.79" y="68.63" class="st5" width="1.96" height="1.96"/>
</g>
<g>
	<rect x="29.83" y="66.67" class="st5" width="1.96" height="1.96"/>
</g>
<g>
	<rect x="39.63" y="58.82" class="st5" width="1.96" height="1.96"/>
</g>
<g>
	<rect x="39.63" y="56.86" class="st6" width="1.96" height="1.96"/>
</g>
<g>
	<rect x="39.63" y="54.9" class="st5" width="1.96" height="1.96"/>
</g>
<g>
	<rect x="39.63" y="64.71" class="st5" width="1.96" height="1.96"/>
</g>
<g>
	<rect x="39.63" y="62.75" class="st5" width="1.96" height="1.96"/>
</g>
<g>
	<rect x="39.63" y="60.78" class="st6" width="1.96" height="1.96"/>
</g>
<g>
	<rect x="37.67" y="58.82" class="st5" width="1.96" height="1.96"/>
</g>
<g>
	<rect x="37.67" y="56.86" class="st5" width="1.96" height="1.96"/>
</g>
<g>
	<rect x="37.67" y="64.71" class="st5" width="1.96" height="1.96"/>
</g>
<g>
	<rect x="37.67" y="62.75" class="st5" width="1.96" height="1.96"/>
</g>
<g>
	<rect x="37.67" y="60.78" class="st5" width="1.96" height="1.96"/>
</g>
<g>
	<rect x="35.71" y="52.94" class="st7" width="1.96" height="1.96"/>
</g>
<g>
	<rect x="35.71" y="58.82" class="st6" width="1.96" height="1.96"/>
</g>
<g>
	<rect x="35.71" y="56.86" class="st7" width="1.96" height="1.96"/>
</g>
<g>
	<rect x="35.71" y="54.9" class="st7" width="1.96" height="1.96"/>
</g>
<g>
	<rect x="35.71" y="64.71" class="st6" width="1.96" height="1.96"/>
</g>
<g>
	<rect x="35.71" y="62.75" class="st6" width="1.96" height="1.96"/>
</g>
<g>
	<rect x="35.71" y="60.78" class="st6" width="1.96" height="1.96"/>
</g>
<g>
	<rect x="33.75" y="58.82" class="st6" width="1.96" height="1.96"/>
</g>
<g>
	<rect x="33.75" y="56.86" class="st6" width="1.96" height="1.96"/>
</g>
<g>
	<rect x="33.75" y="54.9" class="st6" width="1.96" height="1.96"/>
</g>
<g>
	<rect x="33.75" y="64.71" class="st5" width="1.96" height="1.96"/>
</g>
<g>
	<rect x="33.75" y="62.75" class="st6" width="1.96" height="1.96"/>
</g>
<g>
	<rect x="33.75" y="60.78" class="st6" width="1.96" height="1.96"/>
</g>
<g>
	<rect x="31.79" y="52.94" class="st6" width="1.96" height="1.96"/>
</g>
<g>
	<rect x="31.79" y="58.82" class="st5" width="1.96" height="1.96"/>
</g>
<g>
	<rect x="31.79" y="56.86" class="st5" width="1.96" height="1.96"/>
</g>
<g>
	<rect x="31.79" y="54.9" class="st5" width="1.96" height="1.96"/>
</g>
<g>
	<rect x="31.79" y="64.71" class="st5" width="1.96" height="1.96"/>
</g>
<g>
	<rect x="31.79" y="62.75" class="st5" width="1.96" height="1.96"/>
</g>
<g>
	<rect x="31.79" y="60.78" class="st5" width="1.96" height="1.96"/>
</g>
<g>
	<rect x="29.83" y="52.94" class="st5" width="1.96" height="1.96"/>
</g>
<g>
	<rect x="29.83" y="58.82" class="st6" width="1.96" height="1.96"/>
</g>
<g>
	<rect x="29.83" y="56.86" class="st6" width="1.96" height="1.96"/>
</g>
<g>
	<rect x="29.83" y="54.9" class="st6" width="1.96" height="1.96"/>
</g>
<g>
	<rect x="29.83" y="64.71" class="st5" width="1.96" height="1.96"/>
</g>
<g>
	<rect x="29.83" y="62.75" class="st5" width="1.96" height="1.96"/>
</g>
<g>
	<rect x="29.83" y="60.78" class="st5" width="1.96" height="1.96"/>
</g>
<g>
	<rect x="27.87" y="52.94" class="st6" width="1.96" height="1.96"/>
</g>
<g>
	<rect x="27.87" y="58.82" class="st5" width="1.96" height="1.96"/>
</g>
<g>
	<rect x="27.87" y="56.86" class="st5" width="1.96" height="1.96"/>
</g>
<g>
	<rect x="27.87" y="54.9" class="st6" width="1.96" height="1.96"/>
</g>
<g>
	<rect x="27.87" y="62.75" class="st5" width="1.96" height="1.96"/>
</g>
<g>
	<rect x="27.87" y="60.78" class="st5" width="1.96" height="1.96"/>
</g>
<g>
	<rect x="25.91" y="52.94" class="st5" width="1.96" height="1.96"/>
</g>
<g>
	<rect x="25.91" y="58.82" class="st5" width="1.96" height="1.96"/>
</g>
<g>
	<rect x="25.91" y="56.86" class="st5" width="1.96" height="1.96"/>
</g>
<g>
	<rect x="25.91" y="54.9" class="st5" width="1.96" height="1.96"/>
</g>
<g>
	<rect x="47.48" y="52.94" class="st5" width="1.96" height="1.96"/>
</g>
<g>
	<rect x="47.48" y="54.9" class="st5" width="1.96" height="1.96"/>
</g>
<g>
	<rect x="45.52" y="52.94" class="st5" width="1.96" height="1.96"/>
</g>
<g>
	<rect x="45.52" y="58.82" class="st5" width="1.96" height="1.96"/>
</g>
<g>
	<rect x="45.52" y="56.86" class="st5" width="1.96" height="1.96"/>
</g>
<g>
	<rect x="45.52" y="54.9" class="st6" width="1.96" height="1.96"/>
</g>
<g>
	<rect x="43.56" y="52.94" class="st6" width="1.96" height="1.96"/>
</g>
<g>
	<rect x="43.56" y="58.82" class="st5" width="1.96" height="1.96"/>
</g>
<g>
	<rect x="43.56" y="56.86" class="st6" width="1.96" height="1.96"/>
</g>
<g>
	<rect x="43.56" y="54.9" class="st5" width="1.96" height="1.96"/>
</g>
<g>
	<rect x="43.56" y="60.78" class="st5" width="1.96" height="1.96"/>
</g>
<g>
	<rect x="41.59" y="52.94" class="st6" width="1.96" height="1.96"/>
</g>
<g>
	<rect x="41.59" y="58.82" class="st6" width="1.96" height="1.96"/>
</g>
<g>
	<rect x="41.59" y="56.86" class="st5" width="1.96" height="1.96"/>
</g>
<g>
	<rect x="41.59" y="54.9" class="st6" width="1.96" height="1.96"/>
</g>
<g>
	<rect x="41.59" y="64.71" class="st5" width="1.96" height="1.96"/>
</g>
<g>
	<rect x="41.59" y="62.75" class="st5" width="1.96" height="1.96"/>
</g>
<g>
	<rect x="41.59" y="60.78" class="st5" width="1.96" height="1.96"/>
</g>
<g>
	<rect x="39.63" y="9.8" class="st8" width="1.96" height="1.96"/>
</g>
<g>
	<rect x="39.63" y="7.84" class="st9" width="1.96" height="1.96"/>
</g>
<g>
	<rect x="39.63" y="15.69" class="st10" width="1.96" height="1.96"/>
</g>
<g>
	<rect x="39.63" y="13.73" class="st9" width="1.96" height="1.96"/>
</g>
<g>
	<rect x="39.63" y="11.76" class="st9" width="1.96" height="1.96"/>
</g>
<g>
	<rect x="39.63" y="21.57" class="st10" width="1.96" height="1.96"/>
</g>
<g>
	<rect x="39.63" y="19.61" class="st10" width="1.96" height="1.96"/>
</g>
<g>
	<rect x="39.63" y="17.65" class="st10" width="1.96" height="1.96"/>
</g>
<g>
	<rect x="39.63" y="27.45" class="st10" width="1.96" height="1.96"/>
</g>
<g>
	<rect x="39.63" y="25.49" class="st10" width="1.96" height="1.96"/>
</g>
<g>
	<rect x="39.63" y="23.53" class="st10" width="1.96" height="1.96"/>
</g>
<g>
	<rect x="39.63" y="33.33" class="st10" width="1.96" height="1.96"/>
</g>
<g>
	<rect x="39.63" y="31.37" class="st10" width="1.96" height="1.96"/>
</g>
<g>
	<rect x="39.63" y="29.41" class="st10" width="1.96" height="1.96"/>
</g>
<g>
	<rect x="39.63" y="35.29" class="st8" width="1.96" height="1.96"/>
</g>
<g>
	<rect x="37.67" y="9.8" class="st9" width="1.96" height="1.96"/>
</g>
<g>
	<rect x="37.67" y="7.84" class="st8" width="1.96" height="1.96"/>
</g>
<g>
	<rect x="37.67" y="15.69" class="st10" width="1.96" height="1.96"/>
</g>
<g>
	<rect x="37.67" y="13.73" class="st10" width="1.96" height="1.96"/>
</g>
<g>
	<rect x="37.67" y="11.76" class="st10" width="1.96" height="1.96"/>
</g>
<g>
	<rect x="37.67" y="21.57" class="st9" width="1.96" height="1.96"/>
</g>
<g>
	<rect x="37.67" y="19.61" class="st10" width="1.96" height="1.96"/>
</g>
<g>
	<rect x="37.67" y="17.65" class="st10" width="1.96" height="1.96"/>
</g>
<g>
	<rect x="37.67" y="27.45" class="st9" width="1.96" height="1.96"/>
</g>
<g>
	<rect x="37.67" y="25.49" class="st9" width="1.96" height="1.96"/>
</g>
<g>
	<rect x="37.67" y="23.53" class="st9" width="1.96" height="1.96"/>
</g>
<g>
	<rect x="37.67" y="33.33" class="st9" width="1.96" height="1.96"/>
</g>
<g>
	<rect x="37.67" y="31.37" class="st9" width="1.96" height="1.96"/>
</g>
<g>
	<rect x="37.67" y="29.41" class="st9" width="1.96" height="1.96"/>
</g>
<g>
	<rect x="37.67" y="35.29" class="st8" width="1.96" height="1.96"/>
</g>
<g>
	<rect x="35.71" y="9.8" class="st9" width="1.96" height="1.96"/>
</g>
<g>
	<rect x="35.71" y="15.69" class="st10" width="1.96" height="1.96"/>
</g>
<g>
	<rect x="35.71" y="13.73" class="st10" width="1.96" height="1.96"/>
</g>
<g>
	<rect x="35.71" y="11.76" class="st10" width="1.96" height="1.96"/>
</g>
<g>
	<rect x="35.71" y="21.57" class="st9" width="1.96" height="1.96"/>
</g>
<g>
	<rect x="35.71" y="19.61" class="st9" width="1.96" height="1.96"/>
</g>
<g>
	<rect x="35.71" y="17.65" class="st9" width="1.96" height="1.96"/>
</g>
<g>
	<rect x="35.71" y="27.45" class="st10" width="1.96" height="1.96"/>
</g>
<g>
	<rect x="35.71" y="25.49" class="st10" width="1.96" height="1.96"/>
</g>
<g>
	<rect x="35.71" y="23.53" class="st9" width="1.96" height="1.96"/>
</g>
<g>
	<rect x="35.71" y="33.33" class="st10" width="1.96" height="1.96"/>
</g>
<g>
	<rect x="35.71" y="31.37" class="st10" width="1.96" height="1.96"/>
</g>
<g>
	<rect x="35.71" y="29.41" class="st10" width="1.96" height="1.96"/>
</g>
<g>
	<rect x="35.71" y="39.22" class="st7" width="1.96" height="1.96"/>
</g>
<g>
	<rect x="35.71" y="37.25" class="st7" width="1.96" height="1.96"/>
</g>
<g>
	<rect x="35.71" y="35.29" class="st8" width="1.96" height="1.96"/>
</g>
<g>
	<rect x="35.71" y="45.1" class="st7" width="1.96" height="1.96"/>
</g>
<g>
	<rect x="35.71" y="43.14" class="st7" width="1.96" height="1.96"/>
</g>
<g>
	<rect x="35.71" y="41.18" class="st7" width="1.96" height="1.96"/>
</g>
<g>
	<rect x="35.71" y="50.98" class="st7" width="1.96" height="1.96"/>
</g>
<g>
	<rect x="35.71" y="49.02" class="st7" width="1.96" height="1.96"/>
</g>
<g>
	<rect x="35.71" y="47.06" class="st7" width="1.96" height="1.96"/>
</g>
<g>
	<rect x="33.75" y="9.8" class="st10" width="1.96" height="1.96"/>
</g>
<g>
	<rect x="33.75" y="7.84" class="st9" width="1.96" height="1.96"/>
</g>
<g>
	<rect x="33.75" y="15.69" class="st9" width="1.96" height="1.96"/>
</g>
<g>
	<rect x="33.75" y="13.73" class="st9" width="1.96" height="1.96"/>
</g>
<g>
	<rect x="33.75" y="11.76" class="st9" width="1.96" height="1.96"/>
</g>
<g>
	<rect x="33.75" y="21.57" class="st10" width="1.96" height="1.96"/>
</g>
<g>
	<rect x="33.75" y="19.61" class="st9" width="1.96" height="1.96"/>
</g>
<g>
	<rect x="33.75" y="17.65" class="st9" width="1.96" height="1.96"/>
</g>
<g>
	<rect x="33.75" y="27.45" class="st10" width="1.96" height="1.96"/>
</g>
<g>
	<rect x="33.75" y="25.49" class="st10" width="1.96" height="1.96"/>
</g>
<g>
	<rect x="33.75" y="23.53" class="st10" width="1.96" height="1.96"/>
</g>
<g>
	<rect x="33.75" y="33.33" class="st8" width="1.96" height="1.96"/>
</g>
<g>
	<rect x="33.75" y="31.37" class="st10" width="1.96" height="1.96"/>
</g>
<g>
	<rect x="33.75" y="29.41" class="st10" width="1.96" height="1.96"/>
</g>
<g>
	<rect x="33.75" y="35.29" class="st8" width="1.96" height="1.96"/>
</g>
<g>
	<rect x="31.79" y="9.8" class="st10" width="1.96" height="1.96"/>
</g>
<g>
	<rect x="31.79" y="7.84" class="st8" width="1.96" height="1.96"/>
</g>
<g>
	<rect x="31.79" y="15.69" class="st9" width="1.96" height="1.96"/>
</g>
<g>
	<rect x="31.79" y="13.73" class="st9" width="1.96" height="1.96"/>
</g>
<g>
	<rect x="31.79" y="11.76" class="st9" width="1.96" height="1.96"/>
</g>
<g>
	<rect x="31.79" y="21.57" class="st10" width="1.96" height="1.96"/>
</g>
<g>
	<rect x="31.79" y="19.61" class="st10" width="1.96" height="1.96"/>
</g>
<g>
	<rect x="31.79" y="17.65" class="st10" width="1.96" height="1.96"/>
</g>
<g>
	<rect x="31.79" y="27.45" class="st10" width="1.96" height="1.96"/>
</g>
<g>
	<rect x="31.79" y="25.49" class="st10" width="1.96" height="1.96"/>
</g>
<g>
	<rect x="31.79" y="23.53" class="st10" width="1.96" height="1.96"/>
</g>
<g>
	<rect x="31.79" y="33.33" class="st8" width="1.96" height="1.96"/>
</g>
<g>
	<rect x="31.79" y="31.37" class="st8" width="1.96" height="1.96"/>
</g>
<g>
	<rect x="31.79" y="29.41" class="st8" width="1.96" height="1.96"/>
</g>
<g>
	<rect x="31.79" y="50.98" class="st6" width="1.96" height="1.96"/>
</g>
<g>
	<rect x="29.83" y="9.8" class="st9" width="1.96" height="1.96"/>
</g>
<g>
	<rect x="29.83" y="7.84" class="st10" width="1.96" height="1.96"/>
</g>
<g>
	<rect x="29.83" y="15.69" class="st10" width="1.96" height="1.96"/>
</g>
<g>
	<rect x="29.83" y="13.73" class="st9" width="1.96" height="1.96"/>
</g>
<g>
	<rect x="29.83" y="11.76" class="st9" width="1.96" height="1.96"/>
</g>
<g>
	<rect x="29.83" y="21.57" class="st10" width="1.96" height="1.96"/>
</g>
<g>
	<rect x="29.83" y="19.61" class="st10" width="1.96" height="1.96"/>
</g>
<g>
	<rect x="29.83" y="17.65" class="st10" width="1.96" height="1.96"/>
</g>
<g>
	<rect x="29.83" y="27.45" class="st8" width="1.96" height="1.96"/>
</g>
<g>
	<rect x="29.83" y="25.49" class="st10" width="1.96" height="1.96"/>
</g>
<g>
	<rect x="29.83" y="23.53" class="st10" width="1.96" height="1.96"/>
</g>
<g>
	<rect x="29.83" y="33.33" class="st8" width="1.96" height="1.96"/>
</g>
<g>
	<rect x="29.83" y="31.37" class="st8" width="1.96" height="1.96"/>
</g>
<g>
	<rect x="29.83" y="29.41" class="st8" width="1.96" height="1.96"/>
</g>
<g>
	<rect x="29.83" y="50.98" class="st5" width="1.96" height="1.96"/>
</g>
<g>
	<rect x="29.83" y="49.02" class="st6" width="1.96" height="1.96"/>
</g>
<g>
	<rect x="29.83" y="47.06" class="st6" width="1.96" height="1.96"/>
</g>
<g>
	<rect x="27.87" y="9.8" class="st9" width="1.96" height="1.96"/>
</g>
<g>
	<rect x="27.87" y="15.69" class="st10" width="1.96" height="1.96"/>
</g>
<g>
	<rect x="27.87" y="13.73" class="st10" width="1.96" height="1.96"/>
</g>
<g>
	<rect x="27.87" y="11.76" class="st9" width="1.96" height="1.96"/>
</g>
<g>
	<rect x="27.87" y="21.57" class="st10" width="1.96" height="1.96"/>
</g>
<g>
	<rect x="27.87" y="19.61" class="st10" width="1.96" height="1.96"/>
</g>
<g>
	<rect x="27.87" y="17.65" class="st10" width="1.96" height="1.96"/>
</g>
<g>
	<rect x="27.87" y="27.45" class="st8" width="1.96" height="1.96"/>
</g>
<g>
	<rect x="27.87" y="25.49" class="st8" width="1.96" height="1.96"/>
</g>
<g>
	<rect x="27.87" y="23.53" class="st10" width="1.96" height="1.96"/>
</g>
<g>
	<rect x="27.87" y="31.37" class="st8" width="1.96" height="1.96"/>
</g>
<g>
	<rect x="27.87" y="29.41" class="st8" width="1.96" height="1.96"/>
</g>
<g>
	<rect x="27.87" y="45.1" class="st6" width="1.96" height="1.96"/>
</g>
<g>
	<rect x="27.87" y="43.14" class="st6" width="1.96" height="1.96"/>
</g>
<g>
	<rect x="27.87" y="50.98" class="st6" width="1.96" height="1.96"/>
</g>
<g>
	<rect x="27.87" y="49.02" class="st6" width="1.96" height="1.96"/>
</g>
<g>
	<rect x="27.87" y="47.06" class="st6" width="1.96" height="1.96"/>
</g>
<g>
	<rect x="25.91" y="15.69" class="st10" width="1.96" height="1.96"/>
</g>
<g>
	<rect x="25.91" y="13.73" class="st10" width="1.96" height="1.96"/>
</g>
<g>
	<rect x="25.91" y="11.76" class="st9" width="1.96" height="1.96"/>
</g>
<g>
	<rect x="25.91" y="21.57" class="st8" width="1.96" height="1.96"/>
</g>
<g>
	<rect x="25.91" y="19.61" class="st8" width="1.96" height="1.96"/>
</g>
<g>
	<rect x="25.91" y="17.65" class="st10" width="1.96" height="1.96"/>
</g>
<g>
	<rect x="25.91" y="27.45" class="st8" width="1.96" height="1.96"/>
</g>
<g>
	<rect x="25.91" y="25.49" class="st8" width="1.96" height="1.96"/>
</g>
<g>
	<rect x="25.91" y="23.53" class="st8" width="1.96" height="1.96"/>
</g>
<g>
	<rect x="25.91" y="39.22" class="st6" width="1.96" height="1.96"/>
</g>
<g>
	<rect x="25.91" y="45.1" class="st5" width="1.96" height="1.96"/>
</g>
<g>
	<rect x="25.91" y="43.14" class="st6" width="1.96" height="1.96"/>
</g>
<g>
	<rect x="25.91" y="41.18" class="st6" width="1.96" height="1.96"/>
</g>
<g>
	<rect x="25.91" y="50.98" class="st5" width="1.96" height="1.96"/>
</g>
<g>
	<rect x="25.91" y="49.02" class="st5" width="1.96" height="1.96"/>
</g>
<g>
	<rect x="25.91" y="47.06" class="st5" width="1.96" height="1.96"/>
</g>
<g>
	<rect x="23.95" y="37.25" class="st6" width="1.96" height="1.96"/>
</g>
<g>
	<rect x="49.44" y="43.14" class="st6" width="1.96" height="1.96"/>
</g>
<g>
	<rect x="47.48" y="45.1" class="st6" width="1.96" height="1.96"/>
</g>
<g>
	<rect x="47.48" y="50.98" class="st5" width="1.96" height="1.96"/>
</g>
<g>
	<rect x="47.48" y="49.02" class="st5" width="1.96" height="1.96"/>
</g>
<g>
	<rect x="47.48" y="47.06" class="st6" width="1.96" height="1.96"/>
</g>
<g>
	<rect x="45.52" y="15.69" class="st10" width="1.96" height="1.96"/>
</g>
<g>
	<rect x="45.52" y="13.73" class="st9" width="1.96" height="1.96"/>
</g>
<g>
	<rect x="45.52" y="11.76" class="st9" width="1.96" height="1.96"/>
</g>
<g>
	<rect x="45.52" y="21.57" class="st8" width="1.96" height="1.96"/>
</g>
<g>
	<rect x="45.52" y="19.61" class="st10" width="1.96" height="1.96"/>
</g>
<g>
	<rect x="45.52" y="17.65" class="st10" width="1.96" height="1.96"/>
</g>
<g>
	<rect x="45.52" y="27.45" class="st8" width="1.96" height="1.96"/>
</g>
<g>
	<rect x="45.52" y="25.49" class="st8" width="1.96" height="1.96"/>
</g>
<g>
	<rect x="45.52" y="23.53" class="st8" width="1.96" height="1.96"/>
</g>
<g>
	<rect x="45.52" y="29.41" class="st8" width="1.96" height="1.96"/>
</g>
<g>
	<rect x="45.52" y="50.98" class="st6" width="1.96" height="1.96"/>
</g>
<g>
	<rect x="45.52" y="49.02" class="st6" width="1.96" height="1.96"/>
</g>
<g>
	<rect x="43.56" y="9.8" class="st9" width="1.96" height="1.96"/>
</g>
<g>
	<rect x="43.56" y="15.69" class="st9" width="1.96" height="1.96"/>
</g>
<g>
	<rect x="43.56" y="13.73" class="st9" width="1.96" height="1.96"/>
</g>
<g>
	<rect x="43.56" y="11.76" class="st9" width="1.96" height="1.96"/>
</g>
<g>
	<rect x="43.56" y="21.57" class="st10" width="1.96" height="1.96"/>
</g>
<g>
	<rect x="43.56" y="19.61" class="st10" width="1.96" height="1.96"/>
</g>
<g>
	<rect x="43.56" y="17.65" class="st10" width="1.96" height="1.96"/>
</g>
<g>
	<rect x="43.56" y="27.45" class="st10" width="1.96" height="1.96"/>
</g>
<g>
	<rect x="43.56" y="25.49" class="st10" width="1.96" height="1.96"/>
</g>
<g>
	<rect x="43.56" y="23.53" class="st10" width="1.96" height="1.96"/>
</g>
<g>
	<rect x="43.56" y="33.33" class="st8" width="1.96" height="1.96"/>
</g>
<g>
	<rect x="43.56" y="31.37" class="st8" width="1.96" height="1.96"/>
</g>
<g>
	<rect x="43.56" y="29.41" class="st8" width="1.96" height="1.96"/>
</g>
<g>
	<rect x="43.56" y="50.98" class="st6" width="1.96" height="1.96"/>
</g>
<g>
	<rect x="41.59" y="9.8" class="st10" width="1.96" height="1.96"/>
</g>
<g>
	<rect x="41.59" y="7.84" class="st9" width="1.96" height="1.96"/>
</g>
<g>
	<rect x="41.59" y="15.69" class="st9" width="1.96" height="1.96"/>
</g>
<g>
	<rect x="41.59" y="13.73" class="st8" width="1.96" height="1.96"/>
</g>
<g>
	<rect x="41.59" y="11.76" class="st8" width="1.96" height="1.96"/>
</g>
<g>
	<rect x="41.59" y="21.57" class="st9" width="1.96" height="1.96"/>
</g>
<g>
	<rect x="41.59" y="19.61" class="st9" width="1.96" height="1.96"/>
</g>
<g>
	<rect x="41.59" y="17.65" class="st9" width="1.96" height="1.96"/>
</g>
<g>
	<rect x="41.59" y="27.45" class="st10" width="1.96" height="1.96"/>
</g>
<g>
	<rect x="41.59" y="25.49" class="st10" width="1.96" height="1.96"/>
</g>
<g>
	<rect x="41.59" y="23.53" class="st9" width="1.96" height="1.96"/>
</g>
<g>
	<rect x="41.59" y="33.33" class="st8" width="1.96" height="1.96"/>
</g>
<g>
	<rect x="41.59" y="31.37" class="st10" width="1.96" height="1.96"/>
</g>
<g>
	<rect x="41.59" y="29.41" class="st10" width="1.96" height="1.96"/>
</g>
<g>
	<rect x="41.59" y="35.29" class="st8" width="1.96" height="1.96"/>
</g>
<path class="st11" d="M85.81,74.49c-6.46-0.9-12.09-2.8-16.73-7.04c-0.36-0.33-0.68-0.72-0.98-1.11c-1.32-1.72-1.39-2.77-0.29-3.96
	c1.17-1.26,3.04-1.53,4.54-0.49c1.89,1.31,3.78,2.63,5.5,4.14c4.07,3.58,11.48,4.22,16.21-1.63c3.12-3.86,5.17-8.25,6.48-12.95
	c1.64-5.89,2.96-11.86,4.41-17.8c0.41-1.69,1.27-2.53,2.98-2.83c1.72-0.3,3.29,1.14,3.1,2.82c-0.96,8.73-2.89,17.22-6.5,25.25
	c-2.93,6.54-7.47,11.66-14.22,14.47C88.81,73.99,87.11,74.17,85.81,74.49z"/>
<path class="st11" d="M130.1,69.16c2.32-3.95,4.63-7.56,6.61-11.33c2.61-4.98,4.97-10.09,7.44-15.15c0.2-0.4,0.35-0.83,0.56-1.23
	c1.2-2.22,3.22-2.38,4.35-0.16c1.75,3.45,3.25,7.02,4.82,10.56c2,4.48,3.97,8.98,5.96,13.46c0.23,0.53,0.56,1.01,1.04,1.86
	c1.52-3.08,3.03-5.83,4.27-8.7c4.17-9.69,6.93-19.78,8.16-30.27c0.14-1.16,0.21-2.33,0.29-3.5c0.1-1.42,1.08-2.66,2.24-2.79
	c1.31-0.15,2.55,0.67,2.63,2.31c0.11,2.31-0.05,4.67-0.38,6.97c-1.78,12.41-5.94,24.08-11.3,35.36c-0.96,2.03-1.83,4.11-2.74,6.17
	c-0.86,1.96-3.3,2.65-4.92,1.22c-0.99-0.87-1.91-1.98-2.47-3.16c-2.36-5.01-4.57-10.09-6.83-15.14c-0.94-2.1-1.86-4.2-2.9-6.54
	c-0.35,0.54-0.64,0.9-0.85,1.3c-3.15,5.87-6.25,11.78-9.46,17.62c-1.6,2.92-3.31,5.78-5.12,8.58c-1.1,1.7-2.52,1.76-3.83,0.16
	c-0.92-1.13-1.79-2.44-2.2-3.82c-1.59-5.29-3.11-10.62-4.42-15.99c-2-8.17-3.82-16.38-5.67-24.59c-0.15-0.66-0.09-1.48,0.18-2.09
	c0.85-1.88,2.39-2,3.6-0.35c1.64,2.22,2.43,4.8,3.07,7.44c2.34,9.71,4.68,19.42,7.03,29.13C129.46,67.3,129.76,68.09,130.1,69.16z"
	/>
</svg>
